<?xml version="1.0" standalone="no"?>
<!DOCTYPE svg PUBLIC "-//W3C//DTD SVG 20010904//EN"
 "http://www.w3.org/TR/2001/REC-SVG-20010904/DTD/svg10.dtd">
<svg version="1.0" xmlns="http://www.w3.org/2000/svg"
 width="1087.000000pt" height="1087.000000pt" viewBox="0 0 1087.000000 1087.000000"
 preserveAspectRatio="xMidYMid meet">
<metadata>
Created by potrace 1.14, written by Peter Selinger 2001-2017
</metadata>
<g transform="translate(0.000000,1087.000000) scale(0.100000,-0.100000)"
fill="#000000" stroke="none">
<path d="M5179 10696 c-2 -2 -62 -7 -134 -11 -71 -4 -136 -8 -145 -10 -8 -2
-44 -6 -80 -10 -36 -3 -76 -8 -90 -10 -14 -2 -50 -7 -80 -10 -130 -16 -470
-85 -610 -125 -19 -6 -73 -21 -120 -34 -356 -101 -872 -324 -1142 -493 -21
-13 -40 -23 -43 -23 -9 0 -289 -181 -390 -253 -343 -243 -703 -572 -965 -882
-47 -55 -87 -102 -91 -105 -19 -17 -202 -269 -287 -395 -308 -460 -552 -1000
-702 -1550 -38 -142 -112 -488 -125 -585 -3 -25 -8 -56 -10 -70 -2 -14 -7 -47
-10 -75 -3 -27 -7 -68 -10 -90 -42 -330 -37 -851 11 -1197 3 -21 6 -50 8 -65
12 -86 27 -182 41 -253 3 -14 8 -41 11 -60 7 -38 11 -57 19 -93 3 -12 8 -35
10 -52 25 -137 157 -569 237 -770 309 -783 842 -1524 1484 -2065 101 -85 232
-187 324 -252 14 -10 52 -37 85 -61 295 -211 733 -439 1125 -585 174 -64 421
-140 585 -178 17 -4 35 -8 40 -10 69 -17 328 -65 430 -79 22 -3 54 -7 70 -10
17 -3 64 -7 105 -10 41 -3 84 -7 95 -10 56 -12 454 -25 460 -15 2 4 -17 7 -43
8 -42 2 -130 9 -202 17 -105 11 -152 17 -195 25 -27 5 -72 12 -100 16 -27 4
-57 9 -65 10 -8 2 -31 6 -50 9 -19 4 -45 9 -56 11 -150 28 -433 102 -619 162
-166 54 -493 183 -575 227 -14 8 -76 39 -137 69 -214 106 -436 239 -643 385
-109 77 -221 161 -230 171 -3 3 -14 13 -26 21 -63 43 -328 282 -454 410 -92
93 -196 208 -275 304 -28 33 -52 62 -55 65 -16 15 -147 190 -217 290 -317 452
-569 979 -718 1500 -38 133 -52 188 -81 315 -7 32 -42 216 -48 260 -4 22 -11
65 -16 95 -5 30 -12 87 -15 125 -4 39 -8 77 -10 85 -12 47 -20 263 -20 540 1
275 5 377 20 505 2 17 6 57 10 90 3 33 8 71 10 85 3 14 7 41 10 60 12 78 27
159 41 230 9 41 17 84 20 95 49 254 169 623 309 950 134 313 372 716 594 1005
204 267 481 564 693 745 532 455 1057 757 1703 980 128 44 483 139 591 158
182 33 336 57 391 62 38 3 75 8 83 10 15 4 140 15 235 21 82 5 503 5 590 0
146 -9 400 -36 475 -51 13 -2 42 -7 65 -10 22 -4 72 -13 110 -20 39 -8 84 -17
100 -19 177 -31 672 -186 852 -267 23 -10 44 -19 47 -19 15 0 366 -170 475
-229 614 -339 1151 -804 1576 -1366 250 -330 469 -706 624 -1075 30 -69 57
-134 62 -145 61 -140 204 -617 233 -778 2 -15 7 -35 10 -45 3 -9 7 -33 10 -52
3 -19 7 -44 10 -55 2 -11 7 -45 12 -75 4 -30 8 -57 9 -60 1 -3 5 -34 9 -70 5
-36 10 -72 11 -80 1 -8 6 -49 10 -90 4 -41 9 -83 11 -93 5 -31 18 -347 17
-447 -1 -110 -12 -388 -18 -422 -2 -13 -6 -57 -10 -98 -3 -41 -10 -102 -15
-135 -5 -33 -11 -82 -15 -108 -3 -26 -17 -105 -30 -175 -93 -481 -222 -868
-431 -1297 -99 -202 -138 -273 -277 -499 -159 -261 -503 -690 -712 -890 -177
-169 -217 -207 -265 -247 -30 -26 -86 -74 -125 -106 -106 -91 -337 -260 -460
-337 -93 -59 -157 -103 -120 -84 15 8 228 127 242 136 76 44 281 182 368 246
61 44 115 84 120 88 20 14 151 124 225 187 84 72 304 284 395 382 241 259 460
552 650 871 185 310 347 666 463 1018 58 175 127 432 152 565 6 33 20 107 31
165 24 128 57 406 67 555 17 259 7 726 -19 930 -5 44 -12 98 -15 120 -40 324
-145 747 -269 1087 -250 687 -633 1305 -1135 1831 -180 189 -242 246 -516 476
-202 171 -579 417 -884 578 -414 219 -1012 426 -1440 498 -19 3 -42 8 -50 10
-8 2 -28 6 -45 9 -16 2 -50 8 -75 12 -25 4 -56 8 -70 9 -14 2 -65 8 -115 15
-49 6 -117 13 -150 16 -33 2 -82 7 -110 10 -55 6 -621 15 -626 10z"/>
<path d="M5279 9386 c-2 -2 -38 -6 -79 -10 -41 -3 -86 -8 -100 -11 -14 -2 -68
-11 -120 -20 -321 -54 -684 -193 -993 -381 -331 -201 -518 -459 -597 -821 -39
-178 -43 -446 -10 -633 18 -101 21 -114 46 -230 36 -165 39 -194 20 -213 -14
-14 -44 -16 -239 -12 -122 2 -244 0 -272 -5 -27 -4 -72 -11 -100 -14 -27 -4
-57 -9 -65 -11 -8 -2 -26 -6 -40 -9 -93 -16 -264 -68 -385 -116 -305 -121
-599 -347 -778 -599 -136 -190 -180 -325 -180 -541 0 -188 37 -331 139 -533
249 -497 683 -818 1284 -950 63 -14 140 -28 170 -32 30 -3 68 -8 84 -12 66
-13 357 -17 704 -9 l132 3 -13 -21 c-8 -12 -41 -36 -73 -54 -33 -19 -70 -49
-84 -69 -22 -32 -25 -47 -24 -117 0 -45 13 -157 28 -251 30 -192 34 -216 40
-265 10 -86 48 -282 57 -304 7 -13 20 -26 30 -29 18 -5 34 4 194 103 450 278
1001 445 1895 575 217 31 234 34 290 40 25 3 62 8 83 10 89 12 117 15 202 22
175 15 715 6 745 -12 3 -2 30 -6 60 -9 110 -12 150 -25 150 -50 0 -36 -175
-154 -377 -256 -76 -38 -134 -69 -129 -70 27 -1 292 56 379 81 232 69 338 159
337 285 0 32 -33 109 -57 136 -13 14 -14 35 -9 120 31 522 27 565 -53 613 -56
33 -89 70 -99 111 -6 21 -13 154 -17 294 -10 391 -14 522 -19 560 -3 19 -8 59
-11 88 -8 62 -29 70 -45 15 -36 -132 -205 -626 -234 -687 -89 -185 -207 -270
-401 -291 -33 -4 -73 -8 -90 -10 -337 -42 -759 -62 -896 -43 -98 13 -115 17
-189 44 -149 53 -275 152 -368 288 -26 38 -52 71 -59 73 -6 2 -45 -40 -86 -94
-117 -155 -231 -263 -378 -361 -70 -47 -259 -146 -259 -136 0 2 -12 -2 -27 -9
-64 -33 -258 -79 -393 -95 -130 -14 -454 -7 -576 14 -307 51 -506 119 -700
240 -357 221 -592 564 -639 934 -6 52 -7 216 -1 245 2 11 7 45 11 75 10 73 67
244 106 317 84 154 208 300 331 391 187 138 388 214 678 258 25 3 53 8 63 10
10 1 49 6 87 9 82 7 123 -8 171 -62 17 -20 92 -160 167 -312 74 -152 136 -277
137 -278 0 -1 11 0 23 4 28 7 26 16 -30 188 -95 290 -113 399 -113 675 1 193
7 268 35 410 74 378 287 664 639 860 235 130 472 219 711 267 137 27 462 37
575 18 338 -57 531 -128 708 -261 235 -177 414 -455 471 -735 25 -127 29 -160
30 -284 3 -260 -76 -514 -224 -724 -29 -41 -110 -133 -179 -206 -181 -187
-248 -294 -291 -463 -28 -111 -33 -192 -12 -199 9 -4 18 -1 20 5 2 7 9 18 16
25 6 6 23 30 36 52 235 388 386 541 631 643 138 57 235 75 414 76 167 1 199
-2 330 -29 206 -43 462 -153 577 -249 111 -92 190 -217 216 -340 28 -133 -7
-310 -88 -446 -56 -95 -112 -155 -335 -363 -47 -44 -48 -46 -19 -38 38 11 82
33 164 85 335 210 558 516 600 827 11 81 6 202 -10 245 -5 13 -7 24 -5 24 8 0
-36 112 -63 160 -146 263 -458 434 -874 479 -91 10 -316 1 -361 -14 -7 -2 -28
-6 -47 -9 -121 -18 -340 -100 -542 -202 l-48 -24 9 22 c10 27 52 118 116 252
191 402 257 667 250 1006 -2 96 -5 185 -8 196 -3 12 -8 39 -11 60 -73 461
-318 787 -711 945 -124 49 -399 114 -570 134 -27 3 -66 8 -85 11 -39 6 -495
15 -501 10z m1816 -4830 c17 -3 67 -10 113 -15 161 -20 192 -56 187 -218 -4
-116 -27 -172 -83 -199 -32 -15 -79 -17 -417 -20 -209 -1 -396 -5 -415 -7 -19
-3 -71 -8 -115 -12 -44 -3 -93 -8 -110 -10 -16 -2 -57 -7 -90 -10 -33 -3 -71
-8 -85 -10 -14 -2 -52 -6 -85 -10 -52 -5 -194 -25 -290 -40 -16 -2 -95 -16
-175 -31 -80 -14 -158 -28 -175 -31 -69 -11 -403 -95 -512 -128 -211 -64 -517
-181 -655 -251 -78 -40 -177 -28 -225 25 -51 58 -63 188 -24 276 33 76 77 114
206 177 238 118 460 197 898 317 305 84 321 88 417 96 41 3 95 8 120 10 25 2
79 7 120 10 41 4 91 8 110 10 49 5 164 15 228 20 94 8 176 15 222 20 25 3 83
7 130 11 47 3 101 7 120 9 19 2 82 6 140 10 58 4 106 8 108 10 5 4 306 -3 337
-9z"/>
<path d="M6180 3289 c-25 -4 -63 -10 -85 -13 -120 -20 -352 -118 -496 -211
-62 -40 -503 -354 -549 -392 -72 -58 -363 -266 -432 -309 -188 -116 -411 -214
-586 -255 -193 -47 -300 -24 -369 80 -47 69 -61 111 -61 184 0 116 31 180 134
284 41 42 73 78 70 80 -7 7 -108 -40 -169 -79 -170 -108 -257 -264 -262 -468
-5 -219 99 -394 276 -468 140 -58 296 -62 589 -16 52 8 113 19 135 24 22 5 51
11 65 14 324 68 863 289 1211 495 119 70 257 141 359 185 40 17 168 52 218 61
17 3 47 8 65 11 40 8 250 7 297 -1 231 -38 470 -116 680 -220 213 -106 398
-137 535 -90 66 23 142 61 184 92 44 34 108 134 128 203 23 77 23 76 29 165
21 279 -157 476 -366 405 -28 -10 -59 -25 -68 -34 -15 -15 -11 -16 53 -16 93
0 138 -14 185 -56 42 -38 61 -82 61 -141 0 -37 -1 -46 -16 -108 -10 -37 -38
-93 -63 -121 -55 -64 -176 -78 -270 -31 -77 39 -182 121 -312 243 -64 60 -143
132 -175 159 -33 28 -62 53 -65 56 -14 15 -201 134 -250 159 -115 58 -254 106
-365 125 -57 10 -262 13 -315 4z"/>
<path d="M6420 2226 c-155 -45 -280 -181 -296 -323 -3 -26 1 -88 10 -138 8
-49 18 -112 21 -140 4 -27 8 -61 10 -75 4 -24 17 -122 51 -395 8 -66 23 -181
34 -255 10 -74 22 -157 25 -185 14 -108 57 -323 76 -385 24 -75 42 -113 76
-157 20 -28 30 -33 65 -33 33 0 46 6 72 34 73 79 116 189 140 366 2 14 16 102
30 195 15 94 30 186 32 205 3 19 9 62 14 95 5 33 12 78 15 100 4 22 8 51 10
65 3 14 7 43 10 65 4 22 10 67 15 100 5 33 12 78 15 100 15 98 25 162 31 185
13 53 16 210 5 261 -27 123 -116 241 -221 292 -67 33 -173 43 -240 23z"/>
<path d="M5308 193 c7 -3 16 -2 19 1 4 3 -2 6 -13 5 -11 0 -14 -3 -6 -6z"/>
</g>
</svg>
